<mxfile host="app.diagrams.net" agent="Mozilla/5.0 (Windows NT 10.0; Win64; x64) AppleWebKit/537.36 (KHTML, like Gecko) Chrome/123.0.0.0 Safari/537.36 OPR/109.0.0.0" version="24.7.7">
  <diagram name="PÃ¡gina-1" id="_sBV1_8d2K-Yy8zrgml7">
    <mxGraphModel dx="730" dy="388" grid="1" gridSize="10" guides="1" tooltips="1" connect="1" arrows="1" fold="1" page="1" pageScale="1" pageWidth="827" pageHeight="1169" math="0" shadow="0">
      <root>
        <mxCell id="0" />
        <mxCell id="1" parent="0" />
        <mxCell id="1kbJixUE2xFf0A5VzTWB-73" style="edgeStyle=orthogonalEdgeStyle;rounded=0;orthogonalLoop=1;jettySize=auto;html=1;entryX=0.5;entryY=0;entryDx=0;entryDy=0;" edge="1" parent="1" source="1kbJixUE2xFf0A5VzTWB-67" target="1kbJixUE2xFf0A5VzTWB-69">
          <mxGeometry relative="1" as="geometry">
            <Array as="points">
              <mxPoint x="182" y="60" />
              <mxPoint x="420" y="60" />
            </Array>
          </mxGeometry>
        </mxCell>
        <mxCell id="1kbJixUE2xFf0A5VzTWB-67" value="" style="verticalLabelPosition=bottom;aspect=fixed;html=1;shape=mxgraph.salesforce.web;" vertex="1" parent="1">
          <mxGeometry x="160" y="123.60000000000001" width="43.42" height="34.3" as="geometry" />
        </mxCell>
        <mxCell id="1kbJixUE2xFf0A5VzTWB-72" style="edgeStyle=orthogonalEdgeStyle;rounded=0;orthogonalLoop=1;jettySize=auto;html=1;entryX=0;entryY=0.5;entryDx=0;entryDy=0;" edge="1" parent="1" source="1kbJixUE2xFf0A5VzTWB-68" target="1kbJixUE2xFf0A5VzTWB-69">
          <mxGeometry relative="1" as="geometry" />
        </mxCell>
        <mxCell id="1kbJixUE2xFf0A5VzTWB-68" value="" style="outlineConnect=0;dashed=0;verticalLabelPosition=bottom;verticalAlign=top;align=center;html=1;shape=mxgraph.aws3.batch;fillColor=#F58534;gradientColor=none;" vertex="1" parent="1">
          <mxGeometry x="280" y="120" width="40" height="41.5" as="geometry" />
        </mxCell>
        <mxCell id="1kbJixUE2xFf0A5VzTWB-69" value="" style="image;html=1;image=img/lib/clip_art/computers/Database_128x128.png" vertex="1" parent="1">
          <mxGeometry x="400" y="121.5" width="40" height="40" as="geometry" />
        </mxCell>
        <mxCell id="1kbJixUE2xFf0A5VzTWB-70" style="edgeStyle=orthogonalEdgeStyle;rounded=0;orthogonalLoop=1;jettySize=auto;html=1;entryX=0;entryY=0.5;entryDx=0;entryDy=0;entryPerimeter=0;" edge="1" parent="1" source="1kbJixUE2xFf0A5VzTWB-67" target="1kbJixUE2xFf0A5VzTWB-68">
          <mxGeometry relative="1" as="geometry" />
        </mxCell>
        <mxCell id="1kbJixUE2xFf0A5VzTWB-74" value="txt file" style="text;html=1;align=center;verticalAlign=middle;resizable=0;points=[];autosize=1;strokeColor=none;fillColor=none;" vertex="1" parent="1">
          <mxGeometry x="210" y="140" width="50" height="30" as="geometry" />
        </mxCell>
      </root>
    </mxGraphModel>
  </diagram>
</mxfile>
